<svg xmlns="http://www.w3.org/2000/svg" height="500" width="500" data-name="Layer 1" viewBox="0 0 100 125" x="0px" y="0px"><circle cx="49.99" cy="50.01" r="5.62"/><path d="M64,53.35a14.14,14.14,0,0,0,.4-3.34A14.45,14.45,0,0,0,54,36.15a4,4,0,0,0-2.15-3.62,4,4,0,0,0-1.36-.42,10.94,10.94,0,0,1,3.32-3.35c-5.15.66-7.36,5.47-7.36,5.48A4,4,0,0,0,46,36.15a14.44,14.44,0,0,0-9.94,17.56,4,4,0,0,0-2,3.71,4.23,4.23,0,0,0,.33,1.38,11.06,11.06,0,0,1-4.58-1.12c3.22,4.07,8.48,3.49,8.49,3.49a4,4,0,0,0,1.88-.6,14.39,14.39,0,0,0,19.89-.26,4,4,0,0,0,5.26-1.06,11.09,11.09,0,0,1,1.28,4.54c2-4.8-1.14-9.1-1.14-9.11A4.09,4.09,0,0,0,64,53.35ZM50,63.55A13.48,13.48,0,0,1,40.87,60a4,4,0,0,0-3.06-6.83,4.11,4.11,0,0,0-.94.17A13.53,13.53,0,0,1,46.11,37a4,4,0,0,0,7.44.89,4.36,4.36,0,0,0,.33-.89,13.53,13.53,0,0,1,9.31,16,4,4,0,0,0-4.44,6,3.87,3.87,0,0,0,.61.72A13.5,13.5,0,0,1,50,63.55Z"/><path d="M74.08,43.33a25,25,0,1,0-2.34,19A24.79,24.79,0,0,0,74.08,43.33ZM70.46,61.6a23.52,23.52,0,1,1,2.2-17.87A23.56,23.56,0,0,1,70.46,61.6Z"/></svg>