<svg xmlns="http://www.w3.org/2000/svg" width="500" height="500" viewBox="0 0 100 125">
    <path d="M72.31,50a3.1,3.1,0,0,0-1.88-2.23,3.23,3.23,0,0,0-2.81.23,1,1,0,0,1-1.22-.28,7.35,7.35,0,0,0-4.25-2.59,10,10,0,0,0-4.79-5.74,7.52,7.52,0,0,0-4-.86,9.93,9.93,0,0,0-7.9-3.89,9.89,9.89,0,0,0-9.11,6,12.48,12.48,0,0,0-2.85.86A10,10,0,0,0,38,60.48a10,10,0,0,0,7.69,4.12H46a7.39,7.39,0,0,0,3.35-.81,9,9,0,0,0,12.77-2.63,10.83,10.83,0,0,0,9.39-5.72A8,8,0,0,0,72.31,50Zm-2.14,4.76a9.26,9.26,0,0,1-8.43,4.9l-.48,0L61,60a7.49,7.49,0,0,1-3,3,7.63,7.63,0,0,1-8.07-.75l-.43-.33-.46.28a5.79,5.79,0,0,1-3,.85h-.26a8.4,8.4,0,0,1-6.71-3.8l-.26-.4-.48,0c-.28,0-.56,0-.84,0a8.42,8.42,0,0,1-7.72-5,8.29,8.29,0,0,1-.71-3.35,8.44,8.44,0,0,1,5-7.72A11.32,11.32,0,0,1,37,42l.46-.06.16-.43a8.49,8.49,0,0,1,6.35-5.26,9.25,9.25,0,0,1,1.48-.13,8.38,8.38,0,0,1,6.9,3.6l.27.39.47-.07a6,6,0,0,1,3.57.65A8.41,8.41,0,0,1,60.78,46l.14.51.52.07a5.75,5.75,0,0,1,3.77,2.13,2.6,2.6,0,0,0,3.23.61,1.61,1.61,0,0,1,1.39-.13,1.57,1.57,0,0,1,1,1.12A6.44,6.44,0,0,1,70.17,54.71Z"/>
    <path d="M63.41,50.19A3.32,3.32,0,0,0,59.71,49a.77.77,0,0,1-1-.76,6,6,0,0,0-3.19-5.46,3.55,3.55,0,0,0-2.76-.25c0,.11.07.2.09.3a5.13,5.13,0,0,1-4.05,6.31,5.94,5.94,0,0,1-.93.08A5.12,5.12,0,0,1,45,48.31a5.07,5.07,0,0,1-1.88-2.43.77.77,0,0,1,.6-1,.79.79,0,0,1,.87.5A3.51,3.51,0,0,0,45.85,47,3.56,3.56,0,0,0,51,45.88a4.56,4.56,0,0,0,.23-3.17l-.12-.33a0,0,0,0,0,0,0,6,6,0,0,0-11.62,1.24.8.8,0,0,1-.79.66A8.64,8.64,0,0,0,35,45a6.06,6.06,0,0,0,4.41,11.27l.16,0A3.7,3.7,0,0,0,42,52.79a3.54,3.54,0,0,0-1.51-2.89.78.78,0,0,1-.27-1,.82.82,0,0,1,.72-.46.74.74,0,0,1,.42.13,5.16,5.16,0,0,1,2.21,4,5.23,5.23,0,0,1-2.87,4.82,6.07,6.07,0,0,0,5.15,3.31A3.6,3.6,0,0,0,49,59.14a.8.8,0,0,1,.66-.35.77.77,0,0,1,.65.36,5.06,5.06,0,0,0,9.19-1.5,5,5,0,0,0-.21-3,3,3,0,0,0-3.47-2A2.94,2.94,0,0,0,54,53.87a.81.81,0,0,1-.95.33.79.79,0,0,1-.52-.74.76.76,0,0,1,.11-.38,4.62,4.62,0,0,1,1.7-1.58,4.5,4.5,0,0,1,6.07,1.85,6.59,6.59,0,0,1,.72,3.85,6.91,6.91,0,0,0,7-3.6,4.06,4.06,0,0,0,.48-1.83A5,5,0,0,1,63.41,50.19Z"/>
</svg>